<svg width="240px" height="240px" version="1.1" id="Layer_1" xmlns="http://www.w3.org/2000/svg" xmlns:xlink="http://www.w3.org/1999/xlink" x="0px" y="0px"
	 viewBox="0 0 2560 2560" enable-background="new 0 0 0 0" xml:space="preserve">
<path fill="#E53434" opacity="1.000000" stroke="none" 
	d="
M1172.000000,2.000000 
	C1245.375122,2.000000 1318.750244,2.000000 1393.225830,2.631100 
	C1395.600464,3.406412 1396.874756,3.550625 1398.868652,4.138771 
	C1410.065308,8.746964 1422.019653,3.411739 1432.173584,9.651268 
	C1451.717285,9.473489 1470.783936,13.447704 1489.968262,16.355534 
	C1495.806152,17.240379 1501.557007,18.693371 1507.391724,19.603754 
	C1514.844238,20.766554 1522.458740,21.115742 1529.796021,22.747898 
	C1547.622314,26.713280 1565.338257,31.177832 1583.079468,35.519882 
	C1593.529541,38.077503 1604.002563,40.572121 1614.359741,43.472134 
	C1632.919922,48.668961 1651.259644,54.713993 1669.947632,59.378296 
	C1696.750122,66.067848 1722.216675,76.512154 1747.913086,86.227371 
	C1771.142700,95.009918 1793.870117,105.146751 1816.666138,115.038857 
	C1827.853516,119.893494 1838.774414,125.387291 1849.673096,130.875702 
	C1867.031006,139.616913 1884.496338,148.184998 1901.498291,157.582275 
	C1920.779663,168.239365 1939.801880,179.402573 1958.559692,190.957779 
	C1974.186646,200.584274 1989.350098,210.974854 2004.563965,221.256088 
	C2015.404541,228.581787 2026.066284,236.179703 2036.666260,243.851822 
	C2049.003174,252.781128 2061.493164,261.540588 2073.359375,271.067963 
	C2089.333984,283.894104 2104.802490,297.352539 2120.438232,310.598419 
	C2132.552734,320.861420 2145.161133,330.624542 2156.556152,341.638245 
	C2191.545410,375.456299 2226.058594,409.771576 2257.529297,446.972321 
	C2268.185547,459.569031 2278.861816,472.167694 2289.010254,485.170532 
	C2301.188232,500.774078 2313.030762,516.652283 2324.613525,532.703735 
	C2336.350098,548.967834 2348.276855,565.161316 2358.887207,582.155640 
	C2373.823975,606.079712 2389.772461,629.404663 2402.265869,654.846130 
	C2411.098389,672.832214 2421.340820,690.120544 2430.557861,707.925232 
	C2436.445801,719.298889 2441.822510,730.951782 2447.055664,742.646301 
	C2456.948486,764.754639 2466.947266,786.828369 2476.183350,809.213013 
	C2482.932617,825.571167 2489.035645,842.239136 2494.535400,859.060364 
	C2505.194336,891.661499 2515.539062,924.374146 2525.364746,957.234741 
	C2529.384521,970.679138 2531.837891,984.601990 2534.783691,998.354248 
	C2537.308350,1010.140137 2539.555176,1021.986206 2541.859375,1033.818481 
	C2543.989502,1044.753906 2546.442627,1055.650269 2547.952881,1066.673340 
	C2548.796875,1072.833374 2549.762939,1078.798706 2551.284424,1084.876709 
	C2553.495361,1093.709473 2553.471191,1103.103760 2554.374268,1112.261230 
	C2555.053955,1119.151733 2555.788574,1126.039062 2556.311523,1132.942017 
	C2556.598633,1136.727295 2556.758301,1140.333740 2562.000000,1140.000000 
	C2562.000000,1148.049072 2562.000000,1156.098145 2561.331055,1164.866455 
	C2561.108154,1167.057129 2561.554199,1168.528564 2562.000000,1170.000000 
	C2562.000000,1244.708496 2562.000000,1319.416870 2561.404785,1395.131958 
	C2561.206543,1396.759033 2561.603271,1397.379517 2562.000000,1398.000000 
	C2562.000000,1406.713745 2562.000000,1415.427612 2561.531250,1424.230713 
	C2557.412109,1425.692993 2556.446777,1428.460693 2556.285889,1432.176880 
	C2555.463135,1451.187012 2553.654541,1469.995605 2548.685059,1488.552124 
	C2545.736572,1499.562256 2545.441406,1511.263794 2543.623291,1522.601440 
	C2541.916504,1533.245728 2540.075195,1543.886353 2537.752686,1554.409302 
	C2534.655518,1568.440674 2531.069824,1582.365112 2527.631836,1596.320190 
	C2524.191406,1610.285034 2520.978760,1624.316284 2517.098145,1638.159180 
	C2513.762695,1650.057617 2509.671875,1661.746460 2505.832275,1673.500854 
	C2501.145020,1687.849609 2496.746826,1702.308228 2491.535889,1716.466187 
	C2485.551270,1732.725708 2479.102295,1748.830688 2472.335693,1764.782471 
	C2461.682373,1789.896851 2451.062256,1815.044800 2439.540527,1839.765015 
	C2430.658203,1858.822144 2420.913086,1877.523804 2410.644043,1895.875610 
	C2398.615234,1917.372070 2385.295898,1938.143188 2373.092529,1959.546143 
	C2356.923340,1987.904663 2338.203125,2014.535889 2318.723633,2040.619385 
	C2301.169434,2064.125000 2283.264160,2087.412109 2264.536865,2109.985107 
	C2248.696777,2129.077881 2232.115723,2147.660645 2214.677246,2165.297119 
	C2191.155029,2189.086426 2168.512695,2213.798584 2142.516357,2235.114502 
	C2118.275635,2254.990967 2095.192139,2276.288574 2070.775635,2295.937256 
	C2053.112061,2310.151855 2034.355713,2323.064697 2015.624146,2335.881836 
	C1993.437866,2351.063232 1971.175293,2366.215088 1948.173096,2380.099365 
	C1923.667725,2394.890869 1898.417114,2408.480469 1873.184082,2422.020996 
	C1858.679077,2429.804688 1843.615356,2436.560791 1828.708740,2443.579102 
	C1814.194946,2450.412842 1799.735107,2457.409668 1784.934937,2463.574463 
	C1766.505005,2471.250977 1747.849121,2478.416748 1729.108398,2485.306885 
	C1709.765259,2492.418213 1690.244629,2499.056152 1670.720581,2505.661621 
	C1659.958130,2509.302734 1649.134766,2512.853516 1638.153564,2515.739990 
	C1616.028320,2521.555176 1593.778931,2526.899170 1571.575439,2532.416016 
	C1562.066650,2534.778564 1552.580688,2537.250488 1543.018188,2539.374756 
	C1532.797607,2541.645264 1522.536377,2543.780029 1512.221924,2545.563477 
	C1504.766113,2546.853027 1497.195557,2547.482910 1489.673706,2548.385742 
	C1483.450562,2549.133057 1476.693481,2548.565674 1471.117065,2550.867676 
	C1461.635498,2554.781494 1451.730835,2554.065674 1442.087769,2555.443604 
	C1429.081787,2557.301758 1415.839233,2557.482178 1402.709717,2558.527588 
	C1401.135620,2558.653076 1399.633667,2559.686035 1397.484375,2560.288574 
	C1396.580322,2560.852295 1396.290161,2561.426270 1396.000000,2562.000000 
	C1321.958252,2562.000000 1247.916382,2562.000000 1172.881714,2561.337891 
	C1170.598145,2560.438477 1169.307495,2560.201416 1167.322144,2559.496582 
	C1156.632324,2556.908691 1146.443237,2558.175537 1136.204468,2556.288086 
	C1122.180054,2553.702637 1107.726440,2553.373047 1093.455811,2550.785889 
	C1077.694336,2547.927734 1061.746338,2546.294189 1045.963257,2542.878418 
	C1032.902832,2540.052002 1019.667847,2538.117432 1006.645203,2534.656982 
	C986.471313,2529.295898 965.827393,2525.716797 945.613586,2520.489258 
	C926.957397,2515.664307 908.528564,2509.906494 890.145020,2504.099365 
	C877.317200,2500.047119 864.700562,2495.311768 852.051025,2490.712646 
	C835.802429,2484.805176 819.496277,2479.027344 803.439453,2472.629883 
	C790.338440,2467.410400 777.516479,2461.475342 764.661194,2455.657715 
	C744.897339,2446.713867 724.973022,2438.077393 705.559021,2428.421143 
	C686.421509,2418.902344 667.693726,2408.527100 649.047974,2398.061279 
	C632.727722,2388.900879 616.362610,2379.711914 600.750183,2369.423584 
	C577.727234,2354.251953 555.261597,2338.224854 532.736206,2322.310547 
	C516.695679,2310.978027 500.378937,2299.927246 485.197540,2287.512939 
	C460.416443,2267.248535 435.577667,2246.904541 412.386078,2224.885010 
	C385.032349,2198.913818 357.142212,2173.357178 333.273926,2143.868408 
	C321.447205,2129.256836 308.378448,2115.654541 296.008575,2101.476074 
	C291.453125,2096.254639 287.267578,2090.708496 282.955078,2085.277344 
	C272.158569,2071.679199 260.997467,2058.348633 250.702942,2044.379883 
	C238.039780,2027.197144 225.784393,2009.691040 213.949814,1991.926758 
	C202.091385,1974.126953 190.476913,1956.125366 179.662292,1937.680542 
	C169.029984,1919.546509 159.301926,1900.866577 149.611435,1882.200806 
	C140.511459,1864.672241 131.624405,1847.014038 123.287018,1829.113281 
	C112.941338,1806.900391 102.603447,1784.642334 93.456085,1761.923096 
	C82.460396,1734.613281 72.175774,1706.984741 62.623077,1679.137451 
	C55.846855,1659.384033 50.510303,1639.116089 45.059475,1618.935181 
	C40.535732,1602.186646 36.777134,1585.231445 32.691216,1568.364868 
	C30.399736,1558.905640 27.929531,1549.483521 25.909353,1539.966309 
	C23.815235,1530.100830 21.982569,1520.170532 20.382492,1510.212891 
	C19.082407,1502.122192 18.300524,1493.948364 17.279179,1485.812622 
	C16.622572,1480.582397 17.027296,1474.901123 15.060214,1470.218628 
	C10.817595,1460.119751 12.116430,1449.447510 10.529253,1439.117798 
	C8.734789,1427.439087 8.629107,1415.508057 7.450197,1403.720703 
	C7.241896,1401.637817 5.373663,1399.720825 4.144842,1397.123047 
	C3.345138,1396.345825 2.672569,1396.172852 2.000000,1396.000000 
	C2.000000,1331.291504 2.000000,1266.583130 2.539950,1200.417358 
	C3.666530,1195.178711 4.477099,1191.416016 4.792877,1187.612183 
	C5.437769,1179.843872 5.816449,1172.053345 6.827857,1163.605957 
	C8.390244,1153.138306 8.247770,1143.334473 9.799613,1133.439575 
	C11.925164,1119.886475 12.665721,1106.142212 15.219716,1092.483765 
	C18.151449,1076.805420 19.626589,1060.899536 23.174355,1045.199341 
	C26.177668,1031.908569 28.281868,1018.377380 31.288534,1005.002808 
	C34.520336,990.626770 37.472332,976.236084 41.242626,961.946411 
	C46.236874,943.017883 51.032978,924.084900 57.293831,905.507751 
	C63.984058,885.656555 69.253456,865.306458 76.429619,845.643677 
	C88.339066,813.011475 101.278015,780.734619 116.151146,749.324768 
	C128.247070,723.779907 140.838791,698.445435 154.045166,673.458740 
	C164.017532,654.590881 175.244751,636.382629 186.027710,617.947632 
	C201.142654,592.106323 217.199478,566.894104 235.282394,542.980469 
	C253.282501,519.176208 270.300140,494.606934 288.844330,471.242798 
	C304.852264,451.074158 321.755096,431.519043 339.428955,412.793884 
	C361.705841,389.191895 384.721710,366.238373 408.265869,343.897797 
	C425.750000,327.307434 444.166077,311.622955 462.916840,296.462341 
	C488.526642,275.755951 514.589172,255.583115 540.973572,235.872177 
	C554.372498,225.862289 568.823730,217.243530 582.939026,208.214386 
	C600.899719,196.725433 618.756165,185.041306 637.110352,174.208527 
	C656.679688,162.658493 676.575134,151.617798 696.702454,141.068726 
	C715.967957,130.971298 735.527954,121.383949 755.307800,112.336060 
	C771.072449,105.124832 787.310242,98.930252 803.435120,92.528984 
	C819.197205,86.271713 834.959717,79.976273 850.948242,74.339142 
	C866.753723,68.766495 882.794495,63.841385 898.818298,58.912685 
	C919.425293,52.574234 940.065308,46.329052 960.800598,40.428684 
	C968.956116,38.108017 977.434387,36.944397 985.718201,35.046936 
	C1000.952881,31.557364 1016.095276,27.642708 1031.386230,24.429155 
	C1041.967529,22.205389 1052.751709,20.965071 1063.412354,19.097395 
	C1076.954834,16.724852 1090.402588,13.722061 1104.007446,11.826418 
	C1114.142212,10.414304 1124.945190,11.992213 1134.566528,9.196559 
	C1144.707642,6.249878 1154.679932,7.115328 1164.692017,6.017567 
	C1165.875977,5.887759 1166.949463,4.751318 1168.726807,4.076478 
	C1170.253052,3.380973 1171.126465,2.690487 1172.000000,2.000000 
M389.839264,560.827698 
	C383.276703,569.236145 376.649780,577.595215 370.161377,586.060486 
	C291.356384,688.875488 232.061844,801.997986 191.598267,924.990601 
	C159.330826,1023.070496 141.188217,1123.785645 136.137650,1226.890991 
	C132.275955,1305.726196 136.530884,1384.170532 148.739853,1462.090576 
	C164.927841,1565.405518 194.899521,1664.664917 238.485535,1759.785034 
	C309.306732,1914.341675 409.815338,2046.517944 538.839417,2156.952881 
	C632.007141,2236.697266 735.648315,2299.471680 849.197937,2345.958984 
	C971.632996,2396.083496 1098.979248,2423.657959 1231.010132,2429.761230 
	C1287.014893,2432.350098 1343.000610,2430.962158 1398.786743,2425.325195 
	C1464.892090,2418.645508 1530.025513,2406.525635 1594.024414,2388.495361 
	C1707.161865,2356.621582 1812.958130,2308.562500 1911.371216,2244.336914 
	C1997.278809,2188.272461 2074.016602,2121.548340 2142.266846,2044.977783 
	C2202.431885,1977.477783 2254.005615,1903.955322 2296.500732,1824.191040 
	C2365.435303,1694.799316 2408.703369,1557.373657 2424.695801,1411.446289 
	C2431.501221,1349.348877 2433.686768,1287.197876 2430.493652,1224.803955 
	C2426.872803,1154.054443 2417.114014,1084.247803 2400.719971,1015.303589 
	C2380.583252,930.619385 2351.159424,849.314819 2312.360840,771.476257 
	C2249.853516,646.072876 2166.989502,535.871887 2064.311768,440.439911 
	C1987.422729,368.976746 1902.331055,309.332275 1809.175049,261.159210 
	C1741.478394,226.151917 1670.895508,198.284500 1597.570801,177.450363 
	C1508.345703,152.098328 1417.285034,138.175995 1324.662964,134.591690 
	C1263.601807,132.228775 1202.675903,135.090012 1142.053223,142.571594 
	C1078.114136,150.462479 1015.196350,163.525284 953.454102,182.130753 
	C838.296021,216.832565 731.171143,268.212799 632.109985,336.408783 
	C540.885559,399.209808 460.775940,474.031128 389.839264,560.827698 
z"/>
<path fill="#000000" opacity="0.000000" stroke="none" 
	d="
M1168.074219,4.081481 
	C1166.949463,4.751318 1165.875977,5.887759 1164.692017,6.017567 
	C1154.679932,7.115328 1144.707642,6.249878 1134.566528,9.196559 
	C1124.945190,11.992213 1114.142212,10.414304 1104.007446,11.826418 
	C1090.402588,13.722061 1076.954834,16.724852 1063.412354,19.097395 
	C1052.751709,20.965071 1041.967529,22.205389 1031.386230,24.429155 
	C1016.095276,27.642708 1000.952881,31.557364 985.718201,35.046936 
	C977.434387,36.944397 968.956116,38.108017 960.800598,40.428684 
	C940.065308,46.329052 919.425293,52.574234 898.818298,58.912685 
	C882.794495,63.841385 866.753723,68.766495 850.948242,74.339142 
	C834.959717,79.976273 819.197205,86.271713 803.435120,92.528984 
	C787.310242,98.930252 771.072449,105.124832 755.307800,112.336060 
	C735.527954,121.383949 715.967957,130.971298 696.702454,141.068726 
	C676.575134,151.617798 656.679688,162.658493 637.110352,174.208527 
	C618.756165,185.041306 600.899719,196.725433 582.939026,208.214386 
	C568.823730,217.243530 554.372498,225.862289 540.973572,235.872177 
	C514.589172,255.583115 488.526642,275.755951 462.916840,296.462341 
	C444.166077,311.622955 425.750000,327.307434 408.265869,343.897797 
	C384.721710,366.238373 361.705841,389.191895 339.428955,412.793884 
	C321.755096,431.519043 304.852264,451.074158 288.844330,471.242798 
	C270.300140,494.606934 253.282501,519.176208 235.282394,542.980469 
	C217.199478,566.894104 201.142654,592.106323 186.027710,617.947632 
	C175.244751,636.382629 164.017532,654.590881 154.045166,673.458740 
	C140.838791,698.445435 128.247070,723.779907 116.151146,749.324768 
	C101.278015,780.734619 88.339066,813.011475 76.429619,845.643677 
	C69.253456,865.306458 63.984058,885.656555 57.293831,905.507751 
	C51.032978,924.084900 46.236874,943.017883 41.242626,961.946411 
	C37.472332,976.236084 34.520336,990.626770 31.288534,1005.002808 
	C28.281868,1018.377380 26.177668,1031.908569 23.174355,1045.199341 
	C19.626589,1060.899536 18.151449,1076.805420 15.219716,1092.483765 
	C12.665721,1106.142212 11.925164,1119.886475 9.799613,1133.439575 
	C8.247770,1143.334473 8.390244,1153.138306 6.284737,1163.809082 
	C4.145692,1165.118652 3.072842,1165.559326 1.999995,1166.000000 
	C2.000000,778.145691 2.000000,390.291382 2.000000,2.000000 
	C390.041687,2.000000 778.083496,2.000000 1167.086304,2.520185 
	C1168.056152,3.387401 1168.065186,3.734432 1168.074219,4.081481 
z"/>
<path fill="#000000" opacity="0.000000" stroke="none" 
	d="
M4.271976,1397.727295 
	C5.373663,1399.720825 7.241896,1401.637817 7.450197,1403.720703 
	C8.629107,1415.508057 8.734789,1427.439087 10.529253,1439.117798 
	C12.116430,1449.447510 10.817595,1460.119751 15.060214,1470.218628 
	C17.027296,1474.901123 16.622572,1480.582397 17.279179,1485.812622 
	C18.300524,1493.948364 19.082407,1502.122192 20.382492,1510.212891 
	C21.982569,1520.170532 23.815235,1530.100830 25.909353,1539.966309 
	C27.929531,1549.483521 30.399736,1558.905640 32.691216,1568.364868 
	C36.777134,1585.231445 40.535732,1602.186646 45.059475,1618.935181 
	C50.510303,1639.116089 55.846855,1659.384033 62.623077,1679.137451 
	C72.175774,1706.984741 82.460396,1734.613281 93.456085,1761.923096 
	C102.603447,1784.642334 112.941338,1806.900391 123.287018,1829.113281 
	C131.624405,1847.014038 140.511459,1864.672241 149.611435,1882.200806 
	C159.301926,1900.866577 169.029984,1919.546509 179.662292,1937.680542 
	C190.476913,1956.125366 202.091385,1974.126953 213.949814,1991.926758 
	C225.784393,2009.691040 238.039780,2027.197144 250.702942,2044.379883 
	C260.997467,2058.348633 272.158569,2071.679199 282.955078,2085.277344 
	C287.267578,2090.708496 291.453125,2096.254639 296.008575,2101.476074 
	C308.378448,2115.654541 321.447205,2129.256836 333.273926,2143.868408 
	C357.142212,2173.357178 385.032349,2198.913818 412.386078,2224.885010 
	C435.577667,2246.904541 460.416443,2267.248535 485.197540,2287.512939 
	C500.378937,2299.927246 516.695679,2310.978027 532.736206,2322.310547 
	C555.261597,2338.224854 577.727234,2354.251953 600.750183,2369.423584 
	C616.362610,2379.711914 632.727722,2388.900879 649.047974,2398.061279 
	C667.693726,2408.527100 686.421509,2418.902344 705.559021,2428.421143 
	C724.973022,2438.077393 744.897339,2446.713867 764.661194,2455.657715 
	C777.516479,2461.475342 790.338440,2467.410400 803.439453,2472.629883 
	C819.496277,2479.027344 835.802429,2484.805176 852.051025,2490.712646 
	C864.700562,2495.311768 877.317200,2500.047119 890.145020,2504.099365 
	C908.528564,2509.906494 926.957397,2515.664307 945.613586,2520.489258 
	C965.827393,2525.716797 986.471313,2529.295898 1006.645203,2534.656982 
	C1019.667847,2538.117432 1032.902832,2540.052002 1045.963257,2542.878418 
	C1061.746338,2546.294189 1077.694336,2547.927734 1093.455811,2550.785889 
	C1107.726440,2553.373047 1122.180054,2553.702637 1136.204468,2556.288086 
	C1146.443237,2558.175537 1156.632324,2556.908691 1167.325439,2560.005615 
	C1168.015625,2561.321533 1168.007812,2561.660889 1168.000000,2562.000000 
	C779.479309,2562.000000 390.958557,2562.000000 2.000000,2562.000000 
	C2.000000,2174.625000 2.000000,1787.249756 2.572263,1398.904785 
	C3.520343,1397.865601 3.896159,1397.796509 4.271976,1397.727295 
z"/>
<path fill="#000000" opacity="0.000000" stroke="none" 
	d="
M2562.000000,1139.062744 
	C2556.758301,1140.333740 2556.598633,1136.727295 2556.311523,1132.942017 
	C2555.788574,1126.039062 2555.053955,1119.151733 2554.374268,1112.261230 
	C2553.471191,1103.103760 2553.495361,1093.709473 2551.284424,1084.876709 
	C2549.762939,1078.798706 2548.796875,1072.833374 2547.952881,1066.673340 
	C2546.442627,1055.650269 2543.989502,1044.753906 2541.859375,1033.818481 
	C2539.555176,1021.986206 2537.308350,1010.140137 2534.783691,998.354248 
	C2531.837891,984.601990 2529.384521,970.679138 2525.364746,957.234741 
	C2515.539062,924.374146 2505.194336,891.661499 2494.535400,859.060364 
	C2489.035645,842.239136 2482.932617,825.571167 2476.183350,809.213013 
	C2466.947266,786.828369 2456.948486,764.754639 2447.055664,742.646301 
	C2441.822510,730.951782 2436.445801,719.298889 2430.557861,707.925232 
	C2421.340820,690.120544 2411.098389,672.832214 2402.265869,654.846130 
	C2389.772461,629.404663 2373.823975,606.079712 2358.887207,582.155640 
	C2348.276855,565.161316 2336.350098,548.967834 2324.613525,532.703735 
	C2313.030762,516.652283 2301.188232,500.774078 2289.010254,485.170532 
	C2278.861816,472.167694 2268.185547,459.569031 2257.529297,446.972321 
	C2226.058594,409.771576 2191.545410,375.456299 2156.556152,341.638245 
	C2145.161133,330.624542 2132.552734,320.861420 2120.438232,310.598419 
	C2104.802490,297.352539 2089.333984,283.894104 2073.359375,271.067963 
	C2061.493164,261.540588 2049.003174,252.781128 2036.666260,243.851822 
	C2026.066284,236.179703 2015.404541,228.581787 2004.563965,221.256088 
	C1989.350098,210.974854 1974.186646,200.584274 1958.559692,190.957779 
	C1939.801880,179.402573 1920.779663,168.239365 1901.498291,157.582275 
	C1884.496338,148.184998 1867.031006,139.616913 1849.673096,130.875702 
	C1838.774414,125.387291 1827.853516,119.893494 1816.666138,115.038857 
	C1793.870117,105.146751 1771.142700,95.009918 1747.913086,86.227371 
	C1722.216675,76.512154 1696.750122,66.067848 1669.947632,59.378296 
	C1651.259644,54.713993 1632.919922,48.668961 1614.359741,43.472134 
	C1604.002563,40.572121 1593.529541,38.077503 1583.079468,35.519882 
	C1565.338257,31.177832 1547.622314,26.713280 1529.796021,22.747898 
	C1522.458740,21.115742 1514.844238,20.766554 1507.391724,19.603754 
	C1501.557007,18.693371 1495.806152,17.240379 1489.968262,16.355534 
	C1470.783936,13.447704 1451.717285,9.473489 1432.173584,9.651268 
	C1422.019653,3.411739 1410.065308,8.746964 1398.846436,3.713749 
	C1398.104370,2.844794 1398.000000,2.000000 1398.000000,2.000000 
	C1785.852539,2.000000 2173.705078,2.000000 2562.000000,2.000000 
	C2562.000000,380.708344 2562.000000,759.416870 2562.000000,1139.062744 
z"/>
<path fill="#000000" opacity="0.000000" stroke="none" 
	d="
M1398.098389,2560.298340 
	C1399.633667,2559.686035 1401.135620,2558.653076 1402.709717,2558.527588 
	C1415.839233,2557.482178 1429.081787,2557.301758 1442.087769,2555.443604 
	C1451.730835,2554.065674 1461.635498,2554.781494 1471.117065,2550.867676 
	C1476.693481,2548.565674 1483.450562,2549.133057 1489.673706,2548.385742 
	C1497.195557,2547.482910 1504.766113,2546.853027 1512.221924,2545.563477 
	C1522.536377,2543.780029 1532.797607,2541.645264 1543.018188,2539.374756 
	C1552.580688,2537.250488 1562.066650,2534.778564 1571.575439,2532.416016 
	C1593.778931,2526.899170 1616.028320,2521.555176 1638.153564,2515.739990 
	C1649.134766,2512.853516 1659.958130,2509.302734 1670.720581,2505.661621 
	C1690.244629,2499.056152 1709.765259,2492.418213 1729.108398,2485.306885 
	C1747.849121,2478.416748 1766.505005,2471.250977 1784.934937,2463.574463 
	C1799.735107,2457.409668 1814.194946,2450.412842 1828.708740,2443.579102 
	C1843.615356,2436.560791 1858.679077,2429.804688 1873.184082,2422.020996 
	C1898.417114,2408.480469 1923.667725,2394.890869 1948.173096,2380.099365 
	C1971.175293,2366.215088 1993.437866,2351.063232 2015.624146,2335.881836 
	C2034.355713,2323.064697 2053.112061,2310.151855 2070.775635,2295.937256 
	C2095.192139,2276.288574 2118.275635,2254.990967 2142.516357,2235.114502 
	C2168.512695,2213.798584 2191.155029,2189.086426 2214.677246,2165.297119 
	C2232.115723,2147.660645 2248.696777,2129.077881 2264.536865,2109.985107 
	C2283.264160,2087.412109 2301.169434,2064.125000 2318.723633,2040.619385 
	C2338.203125,2014.535889 2356.923340,1987.904663 2373.092529,1959.546143 
	C2385.295898,1938.143188 2398.615234,1917.372070 2410.644043,1895.875610 
	C2420.913086,1877.523804 2430.658203,1858.822144 2439.540527,1839.765015 
	C2451.062256,1815.044800 2461.682373,1789.896851 2472.335693,1764.782471 
	C2479.102295,1748.830688 2485.551270,1732.725708 2491.535889,1716.466187 
	C2496.746826,1702.308228 2501.145020,1687.849609 2505.832275,1673.500854 
	C2509.671875,1661.746460 2513.762695,1650.057617 2517.098145,1638.159180 
	C2520.978760,1624.316284 2524.191406,1610.285034 2527.631836,1596.320190 
	C2531.069824,1582.365112 2534.655518,1568.440674 2537.752686,1554.409302 
	C2540.075195,1543.886353 2541.916504,1533.245728 2543.623291,1522.601440 
	C2545.441406,1511.263794 2545.736572,1499.562256 2548.685059,1488.552124 
	C2553.654541,1469.995605 2555.463135,1451.187012 2556.285889,1432.176880 
	C2556.446777,1428.460693 2557.412109,1425.692993 2561.531250,1425.160156 
	C2562.000000,1804.522583 2562.000000,2183.045166 2562.000000,2562.000000 
	C2174.625000,2562.000000 1787.249756,2562.000000 1398.969604,2561.575195 
	C1398.064575,2561.150391 1398.098389,2560.298584 1398.098389,2560.298340 
z"/>
<path fill="#520F0F" opacity="1.000000" stroke="none" 
	d="
M1.999995,1166.935181 
	C3.072842,1165.559326 4.145692,1165.118652 5.761663,1164.474976 
	C5.816449,1172.053345 5.437769,1179.843872 4.792877,1187.612183 
	C4.477099,1191.416016 3.666530,1195.178711 2.539950,1199.479980 
	C2.000000,1189.290161 2.000000,1178.580200 1.999995,1166.935181 
z"/>
<path fill="#4C1111" opacity="1.000000" stroke="none" 
	d="
M2562.000000,1169.333374 
	C2561.554199,1168.528564 2561.108154,1167.057129 2561.331055,1165.792969 
	C2562.000000,1166.888916 2562.000000,1167.777832 2562.000000,1169.333374 
z"/>
<path fill="#4D0F0F" opacity="1.000000" stroke="none" 
	d="
M1397.333374,2.000000 
	C1398.000000,2.000000 1398.104370,2.844794 1398.126709,3.269816 
	C1396.874756,3.550625 1395.600464,3.406412 1394.163086,2.631100 
	C1394.888916,2.000000 1395.777832,2.000000 1397.333374,2.000000 
z"/>
<path fill="#4B0F0F" opacity="1.000000" stroke="none" 
	d="
M1168.726807,4.076462 
	C1168.065186,3.734432 1168.056152,3.387401 1168.023682,2.520185 
	C1168.888916,2.000000 1169.777710,2.000000 1171.333252,2.000000 
	C1171.126465,2.690487 1170.253052,3.380973 1168.726807,4.076462 
z"/>
<path fill="#390C0C" opacity="1.000000" stroke="none" 
	d="
M1168.666626,2562.000000 
	C1168.007812,2561.660889 1168.015625,2561.321533 1168.020142,2560.473389 
	C1169.307495,2560.201416 1170.598145,2560.438477 1171.944336,2561.337891 
	C1171.111084,2562.000000 1170.222168,2562.000000 1168.666626,2562.000000 
z"/>
<path fill="#4E1010" opacity="1.000000" stroke="none" 
	d="
M4.144841,1397.123047 
	C3.896159,1397.796509 3.520343,1397.865601 2.572263,1397.967407 
	C2.000000,1398.000000 2.000000,1397.000000 2.000000,1396.500000 
	C2.672569,1396.172852 3.345138,1396.345825 4.144841,1397.123047 
z"/>
<path fill="#4C1111" opacity="1.000000" stroke="none" 
	d="
M2562.000000,1397.500000 
	C2561.603271,1397.379517 2561.206543,1396.759033 2561.404785,1396.069336 
	C2562.000000,1396.000000 2562.000000,1397.000000 2562.000000,1397.500000 
z"/>
<path fill="#390C0C" opacity="1.000000" stroke="none" 
	d="
M1397.484375,2560.288574 
	C1398.098389,2560.298584 1398.064575,2561.150391 1398.032227,2561.575195 
	C1398.000000,2562.000000 1397.000000,2562.000000 1396.500000,2562.000000 
	C1396.290161,2561.426270 1396.580322,2560.852295 1397.484375,2560.288574 
z"/>
<path fill="#434242" opacity="1.000000" stroke="none" 
	d="
M390.282227,560.275024 
	C460.775940,474.031128 540.885559,399.209808 632.109985,336.408783 
	C731.171143,268.212799 838.296021,216.832565 953.454102,182.130753 
	C1015.196350,163.525284 1078.114136,150.462479 1142.053223,142.571594 
	C1202.675903,135.090012 1263.601807,132.228775 1324.662964,134.591690 
	C1417.285034,138.175995 1508.345703,152.098328 1597.570801,177.450363 
	C1670.895508,198.284500 1741.478394,226.151917 1809.175049,261.159210 
	C1902.331055,309.332275 1987.422729,368.976746 2064.311768,440.439911 
	C2166.989502,535.871887 2249.853516,646.072876 2312.360840,771.476257 
	C2351.159424,849.314819 2380.583252,930.619385 2400.719971,1015.303589 
	C2417.114014,1084.247803 2426.872803,1154.054443 2430.493652,1224.803955 
	C2433.686768,1287.197876 2431.501221,1349.348877 2424.695801,1411.446289 
	C2408.703369,1557.373657 2365.435303,1694.799316 2296.500732,1824.191040 
	C2254.005615,1903.955322 2202.431885,1977.477783 2142.266846,2044.977783 
	C2074.016602,2121.548340 1997.278809,2188.272461 1911.371216,2244.336914 
	C1812.958130,2308.562500 1707.161865,2356.621582 1594.024414,2388.495361 
	C1530.025513,2406.525635 1464.892090,2418.645508 1398.786743,2425.325195 
	C1343.000610,2430.962158 1287.014893,2432.350098 1231.010132,2429.761230 
	C1098.979248,2423.657959 971.632996,2396.083496 849.197937,2345.958984 
	C735.648315,2299.471680 632.007141,2236.697266 538.839417,2156.952881 
	C409.815338,2046.517944 309.306732,1914.341675 238.485535,1759.785034 
	C194.899521,1664.664917 164.927841,1565.405518 148.739853,1462.090576 
	C136.530884,1384.170532 132.275955,1305.726196 136.137650,1226.890991 
	C141.188217,1123.785645 159.330826,1023.070496 191.598267,924.990601 
	C232.061844,801.997986 291.356384,688.875488 370.161377,586.060486 
	C376.649780,577.595215 383.276703,569.236145 390.282227,560.275024 
M1100.023926,837.000000 
	C1100.023926,1213.272217 1100.020386,1589.544434 1100.035278,1965.816650 
	C1100.035889,1982.676758 1098.496948,1982.274658 1116.207031,1982.273438 
	C1251.519165,1982.263306 1386.831177,1982.268188 1522.143311,1982.265503 
	C1524.809448,1982.265503 1527.485352,1982.371216 1530.139648,1982.184937 
	C1536.557007,1981.734131 1537.432617,1980.847534 1537.816284,1974.362671 
	C1537.993164,1971.373047 1537.880493,1968.365479 1537.880493,1965.366089 
	C1537.882812,1894.043945 1537.882080,1822.721802 1537.884399,1751.399658 
	C1537.884521,1748.066895 1537.764893,1744.724731 1537.982544,1741.405396 
	C1538.088623,1739.787476 1538.844360,1738.212158 1539.831299,1734.802979 
	C1541.622681,1738.713135 1542.557251,1740.792358 1543.524170,1742.856567 
	C1548.325806,1753.107666 1552.672485,1763.603882 1558.020508,1773.562012 
	C1586.880493,1827.299194 1629.173828,1867.967041 1681.393799,1898.631592 
	C1745.593384,1936.330566 1815.940186,1955.851196 1888.752808,1967.913086 
	C1924.289429,1973.800049 1960.063110,1977.615479 1996.004761,1979.548828 
	C2022.277710,1980.962158 2048.599854,1981.541748 2074.907715,1982.181274 
	C2084.942627,1982.425171 2085.495361,1981.481934 2085.727295,1971.338135 
	C2085.742432,1970.671753 2085.736572,1970.005005 2085.736572,1969.338379 
	C2085.737061,1834.026367 2085.743896,1698.714233 2085.700928,1563.402222 
	C2085.699707,1559.877808 2085.147217,1556.353516 2084.811035,1552.343140 
	C2076.868652,1551.726685 2069.947021,1550.934326 2063.006104,1550.692383 
	C2020.695068,1549.217163 1979.517578,1542.113281 1940.278931,1525.731201 
	C1905.892578,1511.374878 1876.246338,1490.426758 1852.264282,1461.650269 
	C1828.831543,1433.532959 1813.503906,1401.357666 1802.622559,1366.625610 
	C1799.391968,1356.314087 1800.417725,1348.881592 1807.211182,1340.220825 
	C1847.312988,1289.096558 1886.831299,1237.514038 1926.508911,1186.057251 
	C1979.412598,1117.447876 2032.288574,1048.817261 2085.140381,980.167847 
	C2087.021729,977.724243 2088.520264,974.986145 2091.249023,970.754578 
	C2085.175781,970.470154 2081.306152,970.131165 2077.436279,970.130432 
	C1936.458374,970.103516 1795.480469,970.166138 1654.502930,969.959229 
	C1646.353271,969.947266 1641.133179,972.385803 1636.312988,979.144653 
	C1606.710571,1020.653870 1576.676636,1061.855713 1546.699341,1103.096680 
	C1544.727783,1105.809082 1543.459839,1109.607422 1537.882446,1110.717529 
	C1537.882446,1105.335083 1537.882568,1100.786743 1537.882568,1096.238525 
	C1537.882202,930.597900 1537.885132,764.957275 1537.875977,599.316650 
	C1537.875244,585.529053 1537.837891,585.479736 1524.069214,585.478455 
	C1387.424072,585.465881 1250.778809,585.466125 1114.133667,585.477600 
	C1100.054077,585.478821 1100.029785,585.523560 1100.028198,600.036926 
	C1100.019653,678.357971 1100.024170,756.678955 1100.023926,837.000000 
M478.305817,1534.828247 
	C513.726318,1836.658936 786.431458,2009.024048 998.268005,1997.300903 
	C998.268005,1992.796509 998.268005,1988.210938 998.268005,1983.625244 
	C998.268005,1848.637451 998.268188,1713.649658 998.266663,1578.661865 
	C998.266602,1575.995483 998.361816,1573.322632 998.212769,1570.663940 
	C997.842651,1564.060791 997.228333,1563.659546 990.654968,1562.593628 
	C983.777283,1561.478394 976.715820,1560.728027 970.156921,1558.547852 
	C941.085571,1548.884521 910.582520,1522.603882 910.647827,1472.924072 
	C910.792542,1362.934204 910.688110,1252.943970 910.717651,1142.953979 
	C910.718506,1139.713257 911.081055,1136.472656 911.324768,1132.398560 
	C915.623291,1132.176392 919.189453,1131.841064 922.756409,1131.832520 
	C944.087708,1131.781494 965.419250,1131.838135 986.750427,1131.772827 
	C990.272766,1131.762085 993.793701,1131.328003 998.282654,1131.024170 
	C998.188293,1077.125488 998.448425,1024.324951 998.087769,970.203613 
	C968.573364,970.203613 940.421509,970.203613 910.708069,970.203613 
	C910.673401,905.355774 910.695557,841.821655 910.691711,778.287903 
	C910.687805,714.751709 910.690857,651.215515 910.690857,588.009521 
	C908.378723,587.247314 907.452332,586.674744 906.525574,586.674194 
	C765.873474,586.589478 625.221313,586.542908 484.569214,586.528137 
	C482.267212,586.527893 479.963196,586.918335 477.665527,587.174683 
	C477.374512,587.207214 477.097687,587.513184 476.848419,587.731384 
	C476.606903,587.942749 476.409332,588.204285 475.204071,589.535767 
	C475.204071,592.715210 475.204041,596.993469 475.204041,601.271729 
	C475.204132,895.578430 475.159424,1189.885132 475.324585,1484.191650 
	C475.333740,1500.479126 477.083313,1516.765503 478.305817,1534.828247 
z"/>
<path fill="#E53535" opacity="1.000000" stroke="none" 
	d="
M1100.023926,836.000000 
	C1100.024170,756.678955 1100.019653,678.357971 1100.028198,600.036926 
	C1100.029785,585.523560 1100.054077,585.478821 1114.133667,585.477600 
	C1250.778809,585.466125 1387.424072,585.465881 1524.069214,585.478455 
	C1537.837891,585.479736 1537.875244,585.529053 1537.875977,599.316650 
	C1537.885132,764.957275 1537.882202,930.597900 1537.882568,1096.238525 
	C1537.882568,1100.786743 1537.882446,1105.335083 1537.882446,1110.717529 
	C1543.459839,1109.607422 1544.727783,1105.809082 1546.699341,1103.096680 
	C1576.676636,1061.855713 1606.710571,1020.653870 1636.312988,979.144653 
	C1641.133179,972.385803 1646.353271,969.947266 1654.502930,969.959229 
	C1795.480469,970.166138 1936.458374,970.103516 2077.436279,970.130432 
	C2081.306152,970.131165 2085.175781,970.470154 2091.249023,970.754578 
	C2088.520264,974.986145 2087.021729,977.724243 2085.140381,980.167847 
	C2032.288574,1048.817261 1979.412598,1117.447876 1926.508911,1186.057251 
	C1886.831299,1237.514038 1847.312988,1289.096558 1807.211182,1340.220825 
	C1800.417725,1348.881592 1799.391968,1356.314087 1802.622559,1366.625610 
	C1813.503906,1401.357666 1828.831543,1433.532959 1852.264282,1461.650269 
	C1876.246338,1490.426758 1905.892578,1511.374878 1940.278931,1525.731201 
	C1979.517578,1542.113281 2020.695068,1549.217163 2063.006104,1550.692383 
	C2069.947021,1550.934326 2076.868652,1551.726685 2084.811035,1552.343140 
	C2085.147217,1556.353516 2085.699707,1559.877808 2085.700928,1563.402222 
	C2085.743896,1698.714233 2085.737061,1834.026367 2085.736572,1969.338379 
	C2085.736572,1970.005005 2085.742432,1970.671753 2085.727295,1971.338135 
	C2085.495361,1981.481934 2084.942627,1982.425171 2074.907715,1982.181274 
	C2048.599854,1981.541748 2022.277710,1980.962158 1996.004761,1979.548828 
	C1960.063110,1977.615479 1924.289429,1973.800049 1888.752808,1967.913086 
	C1815.940186,1955.851196 1745.593384,1936.330566 1681.393799,1898.631592 
	C1629.173828,1867.967041 1586.880493,1827.299194 1558.020508,1773.562012 
	C1552.672485,1763.603882 1548.325806,1753.107666 1543.524170,1742.856567 
	C1542.557251,1740.792358 1541.622681,1738.713135 1539.831299,1734.802979 
	C1538.844360,1738.212158 1538.088623,1739.787476 1537.982544,1741.405396 
	C1537.764893,1744.724731 1537.884521,1748.066895 1537.884399,1751.399658 
	C1537.882080,1822.721802 1537.882812,1894.043945 1537.880493,1965.366089 
	C1537.880493,1968.365479 1537.993164,1971.373047 1537.816284,1974.362671 
	C1537.432617,1980.847534 1536.557007,1981.734131 1530.139648,1982.184937 
	C1527.485352,1982.371216 1524.809448,1982.265503 1522.143311,1982.265503 
	C1386.831177,1982.268188 1251.519165,1982.263306 1116.207031,1982.273438 
	C1098.496948,1982.274658 1100.035889,1982.676758 1100.035278,1965.816650 
	C1100.020386,1589.544434 1100.023926,1213.272217 1100.023926,836.000000 
z"/>
<path fill="#DFDFDF" opacity="1.000000" stroke="none" 
	d="
M478.164307,1533.940308 
	C477.083313,1516.765503 475.333740,1500.479126 475.324585,1484.191650 
	C475.159424,1189.885132 475.204132,895.578430 475.204041,601.271729 
	C475.204041,596.993469 475.204071,592.715210 475.204071,589.535767 
	C476.409332,588.204285 476.606903,587.942749 476.848419,587.731384 
	C477.097687,587.513184 477.374512,587.207214 477.665527,587.174683 
	C479.963196,586.918335 482.267212,586.527893 484.569214,586.528137 
	C625.221313,586.542908 765.873474,586.589478 906.525574,586.674194 
	C907.452332,586.674744 908.378723,587.247314 910.690857,588.009521 
	C910.690857,651.215515 910.687805,714.751709 910.691711,778.287903 
	C910.695557,841.821655 910.673401,905.355774 910.708069,970.203613 
	C940.421509,970.203613 968.573364,970.203613 998.087769,970.203613 
	C998.448425,1024.324951 998.188293,1077.125488 998.282654,1131.024170 
	C993.793701,1131.328003 990.272766,1131.762085 986.750427,1131.772827 
	C965.419250,1131.838135 944.087708,1131.781494 922.756409,1131.832520 
	C919.189453,1131.841064 915.623291,1132.176392 911.324768,1132.398560 
	C911.081055,1136.472656 910.718506,1139.713257 910.717651,1142.953979 
	C910.688110,1252.943970 910.792542,1362.934204 910.647827,1472.924072 
	C910.582520,1522.603882 941.085571,1548.884521 970.156921,1558.547852 
	C976.715820,1560.728027 983.777283,1561.478394 990.654968,1562.593628 
	C997.228333,1563.659546 997.842651,1564.060791 998.212769,1570.663940 
	C998.361816,1573.322632 998.266602,1575.995483 998.266663,1578.661865 
	C998.268188,1713.649658 998.268005,1848.637451 998.268005,1983.625244 
	C998.268005,1988.210938 998.268005,1992.796509 998.268005,1997.300903 
	C786.431458,2009.024048 513.726318,1836.658936 478.164307,1533.940308 
z"/>
</svg>